<svg xmlns="http://www.w3.org/2000/svg" version="1.1" xmlns:xlink="http://www.w3.org/1999/xlink" xmlns:svgjs="http://svgjs.dev/svgjs" viewBox="-1 -1.5 16 16.5"><symbol><rect width="2" height="2" transform="matrix(1,0,0,1,-1,-1)" fill="lightgrey" stroke-width="0.1" stroke="white" id="SvgjsRect1000"></rect></symbol><use href="#SvgjsRect1000" x="0" y="0"></use><use href="#SvgjsRect1000" x="0" y="2"></use><use href="#SvgjsRect1000" x="0" y="4"></use><use href="#SvgjsRect1000" x="0" y="6"></use><use href="#SvgjsRect1000" x="0" y="8"></use><use href="#SvgjsRect1000" x="0" y="10"></use><use href="#SvgjsRect1000" x="0" y="12"></use><use href="#SvgjsRect1000" x="0" y="14"></use><use href="#SvgjsRect1000" x="2" y="0"></use><use href="#SvgjsRect1000" x="2" y="2"></use><use href="#SvgjsRect1000" x="2" y="4"></use><use href="#SvgjsRect1000" x="2" y="6"></use><use href="#SvgjsRect1000" x="2" y="8"></use><use href="#SvgjsRect1000" x="2" y="10"></use><use href="#SvgjsRect1000" x="2" y="12"></use><use href="#SvgjsRect1000" x="2" y="14"></use><use href="#SvgjsRect1000" x="4" y="0"></use><use href="#SvgjsRect1000" x="4" y="2"></use><use href="#SvgjsRect1000" x="4" y="4"></use><use href="#SvgjsRect1000" x="4" y="6"></use><use href="#SvgjsRect1000" x="4" y="8"></use><use href="#SvgjsRect1000" x="4" y="10"></use><use href="#SvgjsRect1000" x="4" y="12"></use><use href="#SvgjsRect1000" x="4" y="14"></use><use href="#SvgjsRect1000" x="6" y="0"></use><use href="#SvgjsRect1000" x="6" y="2"></use><use href="#SvgjsRect1000" x="6" y="4"></use><use href="#SvgjsRect1000" x="6" y="6"></use><use href="#SvgjsRect1000" x="6" y="8"></use><use href="#SvgjsRect1000" x="6" y="10"></use><use href="#SvgjsRect1000" x="6" y="12"></use><use href="#SvgjsRect1000" x="6" y="14"></use><use href="#SvgjsRect1000" x="8" y="0"></use><use href="#SvgjsRect1000" x="8" y="2"></use><use href="#SvgjsRect1000" x="8" y="4"></use><use href="#SvgjsRect1000" x="8" y="6"></use><use href="#SvgjsRect1000" x="8" y="8"></use><use href="#SvgjsRect1000" x="8" y="10"></use><use href="#SvgjsRect1000" x="8" y="12"></use><use href="#SvgjsRect1000" x="8" y="14"></use><use href="#SvgjsRect1000" x="10" y="0"></use><use href="#SvgjsRect1000" x="10" y="2"></use><use href="#SvgjsRect1000" x="10" y="4"></use><use href="#SvgjsRect1000" x="10" y="6"></use><use href="#SvgjsRect1000" x="10" y="8"></use><use href="#SvgjsRect1000" x="10" y="10"></use><use href="#SvgjsRect1000" x="10" y="12"></use><use href="#SvgjsRect1000" x="10" y="14"></use><use href="#SvgjsRect1000" x="12" y="0"></use><use href="#SvgjsRect1000" x="12" y="2"></use><use href="#SvgjsRect1000" x="12" y="4"></use><use href="#SvgjsRect1000" x="12" y="6"></use><use href="#SvgjsRect1000" x="12" y="8"></use><use href="#SvgjsRect1000" x="12" y="10"></use><use href="#SvgjsRect1000" x="12" y="12"></use><use href="#SvgjsRect1000" x="12" y="14"></use><use href="#SvgjsRect1000" x="14" y="0"></use><use href="#SvgjsRect1000" x="14" y="2"></use><use href="#SvgjsRect1000" x="14" y="4"></use><use href="#SvgjsRect1000" x="14" y="6"></use><use href="#SvgjsRect1000" x="14" y="8"></use><use href="#SvgjsRect1000" x="14" y="10"></use><use href="#SvgjsRect1000" x="14" y="12"></use><use href="#SvgjsRect1000" x="14" y="14"></use><circle r="0.7" cx="0" cy="0" transform="matrix(1,0,0,1,0,0)" fill="DarkSlateGray" stroke-width="0.1" stroke="black"></circle><circle r="0.7" cx="0" cy="0" transform="matrix(1,0,0,1,2,0)" fill="DarkSlateGray" stroke-width="0.1" stroke="black"></circle><circle r="0.7" cx="0" cy="0" transform="matrix(1,0,0,1,4,0)" fill="DarkSlateGray" stroke-width="0.1" stroke="black"></circle><circle r="0.7" cx="0" cy="0" transform="matrix(1,0,0,1,6,0)" fill="DarkSlateGray" stroke-width="0.1" stroke="black"></circle><circle r="0.7" cx="0" cy="0" transform="matrix(1,0,0,1,8,0)" fill="DarkSlateGray" stroke-width="0.1" stroke="black"></circle><circle r="0.7" cx="0" cy="0" transform="matrix(1,0,0,1,10,0)" fill="DarkSlateGray" stroke-width="0.1" stroke="black"></circle><circle r="0.7" cx="0" cy="0" transform="matrix(1,0,0,1,12,0)" fill="DarkSlateGray" stroke-width="0.1" stroke="black"></circle><circle r="0.7" cx="0" cy="0" transform="matrix(1,0,0,1,14,0)" fill="DarkSlateGray" stroke-width="0.1" stroke="black"></circle><circle r="0.7" cx="0" cy="0" transform="matrix(1,0,0,1,2,2)" fill="DarkSlateGray" stroke-width="0.1" stroke="black"></circle><circle r="0.7" cx="0" cy="0" transform="matrix(1,0,0,1,4,2)" fill="DarkSlateGray" stroke-width="0.1" stroke="black"></circle><circle r="0.7" cx="0" cy="0" transform="matrix(1,0,0,1,6,2)" fill="DarkSlateGray" stroke-width="0.1" stroke="black"></circle><circle r="0.7" cx="0" cy="0" transform="matrix(1,0,0,1,8,2)" fill="DarkSlateGray" stroke-width="0.1" stroke="black"></circle><circle r="0.7" cx="0" cy="0" transform="matrix(1,0,0,1,10,2)" fill="DarkSlateGray" stroke-width="0.1" stroke="black"></circle><circle r="0.7" cx="0" cy="0" transform="matrix(1,0,0,1,12,2)" fill="DarkSlateGray" stroke-width="0.1" stroke="black"></circle><circle r="0.7" cx="0" cy="0" transform="matrix(1,0,0,1,4,4)" fill="DarkSlateGray" stroke-width="0.1" stroke="black"></circle><circle r="0.7" cx="0" cy="0" transform="matrix(1,0,0,1,6,4)" fill="DarkSlateGray" stroke-width="0.1" stroke="black"></circle><circle r="0.7" cx="0" cy="0" transform="matrix(1,0,0,1,8,4)" fill="DarkSlateGray" stroke-width="0.1" stroke="black"></circle><circle r="0.7" cx="0" cy="0" transform="matrix(1,0,0,1,10,4)" fill="DarkSlateGray" stroke-width="0.1" stroke="black"></circle><circle r="0.7" cx="0" cy="0" transform="matrix(1,0,0,1,0,14)" fill="white" stroke-width="0.1" stroke="black"></circle><circle r="0.7" cx="0" cy="0" transform="matrix(1,0,0,1,2,14)" fill="white" stroke-width="0.1" stroke="black"></circle><circle r="0.7" cx="0" cy="0" transform="matrix(1,0,0,1,4,14)" fill="white" stroke-width="0.1" stroke="black"></circle><circle r="0.7" cx="0" cy="0" transform="matrix(1,0,0,1,6,14)" fill="white" stroke-width="0.1" stroke="black"></circle><circle r="0.7" cx="0" cy="0" transform="matrix(1,0,0,1,8,14)" fill="white" stroke-width="0.1" stroke="black"></circle><circle r="0.7" cx="0" cy="0" transform="matrix(1,0,0,1,10,14)" fill="white" stroke-width="0.1" stroke="black"></circle><circle r="0.7" cx="0" cy="0" transform="matrix(1,0,0,1,12,14)" fill="white" stroke-width="0.1" stroke="black"></circle><circle r="0.7" cx="0" cy="0" transform="matrix(1,0,0,1,14,14)" fill="white" stroke-width="0.1" stroke="black"></circle><circle r="0.7" cx="0" cy="0" transform="matrix(1,0,0,1,2,12)" fill="white" stroke-width="0.1" stroke="black"></circle><circle r="0.7" cx="0" cy="0" transform="matrix(1,0,0,1,4,12)" fill="white" stroke-width="0.1" stroke="black"></circle><circle r="0.7" cx="0" cy="0" transform="matrix(1,0,0,1,6,12)" fill="white" stroke-width="0.1" stroke="black"></circle><circle r="0.7" cx="0" cy="0" transform="matrix(1,0,0,1,8,12)" fill="white" stroke-width="0.1" stroke="black"></circle><circle r="0.7" cx="0" cy="0" transform="matrix(1,0,0,1,10,12)" fill="white" stroke-width="0.1" stroke="black"></circle><circle r="0.7" cx="0" cy="0" transform="matrix(1,0,0,1,12,12)" fill="white" stroke-width="0.1" stroke="black"></circle><circle r="0.7" cx="0" cy="0" transform="matrix(1,0,0,1,4,10)" fill="white" stroke-width="0.1" stroke="black"></circle><circle r="0.7" cx="0" cy="0" transform="matrix(1,0,0,1,6,10)" fill="white" stroke-width="0.1" stroke="black"></circle><circle r="0.7" cx="0" cy="0" transform="matrix(1,0,0,1,8,10)" fill="white" stroke-width="0.1" stroke="black"></circle><circle r="0.7" cx="0" cy="0" transform="matrix(1,0,0,1,10,10)" fill="white" stroke-width="0.1" stroke="black"></circle></svg>