<svg xmlns="http://www.w3.org/2000/svg" version="1.1" xmlns:xlink="http://www.w3.org/1999/xlink" xmlns:svgjs="http://svgjs.dev/svgjs" viewBox="-7.794228634059947 -7.25 15.588457268119894 14.5"><symbol><polygon points="0.8660254037844386,-0.5,0.8660254037844386,0.5 0,1,-0.8660254037844386,0.5 -0.8660254037844386,-0.5,0,-1" fill="lightgrey" stroke-width="0.1" stroke="white" id="SvgjsPolygon1000"></polygon></symbol><use href="#SvgjsPolygon1000" x="-6.928203230275509" y="0"></use><use href="#SvgjsPolygon1000" x="-6.06217782649107" y="1.5"></use><use href="#SvgjsPolygon1000" x="-5.196152422706632" y="3"></use><use href="#SvgjsPolygon1000" x="-4.330127018922193" y="4.5"></use><use href="#SvgjsPolygon1000" x="-3.4641016151377544" y="6"></use><use href="#SvgjsPolygon1000" x="-6.06217782649107" y="-1.5"></use><use href="#SvgjsPolygon1000" x="-5.196152422706632" y="0"></use><use href="#SvgjsPolygon1000" x="-4.330127018922193" y="1.5"></use><use href="#SvgjsPolygon1000" x="-3.4641016151377544" y="3"></use><use href="#SvgjsPolygon1000" x="-2.598076211353316" y="4.5"></use><use href="#SvgjsPolygon1000" x="-1.7320508075688772" y="6"></use><use href="#SvgjsPolygon1000" x="-5.196152422706632" y="-3"></use><use href="#SvgjsPolygon1000" x="-4.330127018922193" y="-1.5"></use><use href="#SvgjsPolygon1000" x="-3.4641016151377544" y="0"></use><use href="#SvgjsPolygon1000" x="-2.598076211353316" y="1.5"></use><use href="#SvgjsPolygon1000" x="-1.7320508075688772" y="3"></use><use href="#SvgjsPolygon1000" x="-0.8660254037844386" y="4.5"></use><use href="#SvgjsPolygon1000" x="0" y="6"></use><use href="#SvgjsPolygon1000" x="-4.330127018922193" y="-4.5"></use><use href="#SvgjsPolygon1000" x="-3.4641016151377544" y="-3"></use><use href="#SvgjsPolygon1000" x="-2.598076211353316" y="-1.5"></use><use href="#SvgjsPolygon1000" x="-1.7320508075688772" y="0"></use><use href="#SvgjsPolygon1000" x="-0.8660254037844386" y="1.5"></use><use href="#SvgjsPolygon1000" x="0" y="3"></use><use href="#SvgjsPolygon1000" x="0.8660254037844386" y="4.5"></use><use href="#SvgjsPolygon1000" x="1.7320508075688772" y="6"></use><use href="#SvgjsPolygon1000" x="-3.4641016151377544" y="-6"></use><use href="#SvgjsPolygon1000" x="-2.598076211353316" y="-4.5"></use><use href="#SvgjsPolygon1000" x="-1.7320508075688772" y="-3"></use><use href="#SvgjsPolygon1000" x="-0.8660254037844386" y="-1.5"></use><use href="#SvgjsPolygon1000" x="0" y="0"></use><use href="#SvgjsPolygon1000" x="0.8660254037844386" y="1.5"></use><use href="#SvgjsPolygon1000" x="1.7320508075688772" y="3"></use><use href="#SvgjsPolygon1000" x="2.598076211353316" y="4.5"></use><use href="#SvgjsPolygon1000" x="3.4641016151377544" y="6"></use><use href="#SvgjsPolygon1000" x="-1.7320508075688772" y="-6"></use><use href="#SvgjsPolygon1000" x="-0.8660254037844386" y="-4.5"></use><use href="#SvgjsPolygon1000" x="0" y="-3"></use><use href="#SvgjsPolygon1000" x="0.8660254037844386" y="-1.5"></use><use href="#SvgjsPolygon1000" x="1.7320508075688772" y="0"></use><use href="#SvgjsPolygon1000" x="2.598076211353316" y="1.5"></use><use href="#SvgjsPolygon1000" x="3.4641016151377544" y="3"></use><use href="#SvgjsPolygon1000" x="4.330127018922193" y="4.5"></use><use href="#SvgjsPolygon1000" x="0" y="-6"></use><use href="#SvgjsPolygon1000" x="0.8660254037844386" y="-4.5"></use><use href="#SvgjsPolygon1000" x="1.7320508075688772" y="-3"></use><use href="#SvgjsPolygon1000" x="2.598076211353316" y="-1.5"></use><use href="#SvgjsPolygon1000" x="3.4641016151377544" y="0"></use><use href="#SvgjsPolygon1000" x="4.330127018922193" y="1.5"></use><use href="#SvgjsPolygon1000" x="5.196152422706632" y="3"></use><use href="#SvgjsPolygon1000" x="1.7320508075688772" y="-6"></use><use href="#SvgjsPolygon1000" x="2.598076211353316" y="-4.5"></use><use href="#SvgjsPolygon1000" x="3.4641016151377544" y="-3"></use><use href="#SvgjsPolygon1000" x="4.330127018922193" y="-1.5"></use><use href="#SvgjsPolygon1000" x="5.196152422706632" y="0"></use><use href="#SvgjsPolygon1000" x="6.06217782649107" y="1.5"></use><use href="#SvgjsPolygon1000" x="3.4641016151377544" y="-6"></use><use href="#SvgjsPolygon1000" x="4.330127018922193" y="-4.5"></use><use href="#SvgjsPolygon1000" x="5.196152422706632" y="-3"></use><use href="#SvgjsPolygon1000" x="6.06217782649107" y="-1.5"></use><use href="#SvgjsPolygon1000" x="6.928203230275509" y="0"></use><circle r="0.7" cx="0" cy="0" transform="matrix(1,0,0,1,-3.4641016151377544,-6)" fill="white" stroke-width="0.1" stroke="black"></circle><circle r="0.7" cx="0" cy="0" transform="matrix(1,0,0,1,-1.7320508075688772,-6)" fill="white" stroke-width="0.1" stroke="black"></circle><circle r="0.7" cx="0" cy="0" transform="matrix(1,0,0,1,-1.7320508075688772,-6.2)" fill="DarkSlateGray" stroke-width="0.1" stroke="black"></circle><circle r="0.7" cx="0" cy="0" transform="matrix(1,0,0,1,-1.7320508075688772,-6.4)" fill="white" stroke-width="0.1" stroke="black"></circle><circle r="0.7" cx="0" cy="0" transform="matrix(1,0,0,1,1.7320508075688772,-6)" fill="DarkSlateGray" stroke-width="0.1" stroke="black"></circle><circle r="0.7" cx="0" cy="0" transform="matrix(1,0,0,1,1.7320508075688772,-6.2)" fill="white" stroke-width="0.1" stroke="black"></circle><circle r="0.7" cx="0" cy="0" transform="matrix(1,0,0,1,1.7320508075688772,-6.4)" fill="DarkSlateGray" stroke-width="0.1" stroke="black"></circle><circle r="0.7" cx="0" cy="0" transform="matrix(1,0,0,1,-5.196152422706632,-3)" fill="DarkSlateGray" stroke-width="0.1" stroke="black"></circle><circle r="0.7" cx="0" cy="0" transform="matrix(1,0,0,1,-0.8660254037844386,-1.5)" fill="red" stroke-width="0.1" stroke="black"></circle><circle r="0.7" cx="0" cy="0" transform="matrix(1,0,0,1,2.598076211353316,-1.5)" fill="DarkSlateGray" stroke-width="0.1" stroke="black"></circle><circle r="0.7" cx="0" cy="0" transform="matrix(1,0,0,1,-3.4641016151377544,0)" fill="DarkSlateGray" stroke-width="0.1" stroke="black"></circle><circle r="0.7" cx="0" cy="0" transform="matrix(1,0,0,1,1.7320508075688772,0)" fill="white" stroke-width="0.1" stroke="black"></circle><circle r="0.7" cx="0" cy="0" transform="matrix(1,0,0,1,3.4641016151377544,0)" fill="red" stroke-width="0.1" stroke="black"></circle><circle r="0.7" cx="0" cy="0" transform="matrix(1,0,0,1,-2.598076211353316,1.5)" fill="red" stroke-width="0.1" stroke="black"></circle><circle r="0.7" cx="0" cy="0" transform="matrix(1,0,0,1,0,3)" fill="white" stroke-width="0.1" stroke="black"></circle><circle r="0.7" cx="0" cy="0" transform="matrix(1,0,0,1,0,2.8)" fill="DarkSlateGray" stroke-width="0.1" stroke="black"></circle><circle r="0.7" cx="0" cy="0" transform="matrix(1,0,0,1,0,2.6)" fill="white" stroke-width="0.1" stroke="black"></circle><circle r="0.7" cx="0" cy="0" transform="matrix(1,0,0,1,3.4641016151377544,3)" fill="white" stroke-width="0.1" stroke="black"></circle><circle r="0.7" cx="0" cy="0" transform="matrix(1,0,0,1,3.4641016151377544,2.8)" fill="DarkSlateGray" stroke-width="0.1" stroke="black"></circle><circle r="0.7" cx="0" cy="0" transform="matrix(1,0,0,1,-1.7320508075688772,6)" fill="white" stroke-width="0.1" stroke="black"></circle><circle r="0.7" cx="0" cy="0" transform="matrix(1,0,0,1,0,6)" fill="DarkSlateGray" stroke-width="0.1" stroke="black"></circle><circle r="0.7" cx="0" cy="0" transform="matrix(1,0,0,1,0,5.8)" fill="white" stroke-width="0.1" stroke="black"></circle><circle r="0.7" cx="0" cy="0" transform="matrix(1,0,0,1,0,5.6)" fill="DarkSlateGray" stroke-width="0.1" stroke="black"></circle><circle r="0.7" cx="0" cy="0" transform="matrix(1,0,0,1,1.7320508075688772,6)" fill="white" stroke-width="0.1" stroke="black"></circle></svg>